HIERARCHY
ROOT Hips
{
	OFFSET 0.000000 0.000000 0.000000 
	CHANNELS 6 Xposition Yposition Zposition Zrotation Yrotation Xrotation
	JOINT LeftUpLeg
	{
		OFFSET 0.000000 0.000000 0.000000 
		CHANNELS 3 Zrotation Yrotation Xrotation
		JOINT LeftLeg
		{
			OFFSET 3.811170 -8.520760 0.839290 
			CHANNELS 3 Zrotation Yrotation Xrotation
			JOINT LeftFoot
			{
				OFFSET 2.562200 -7.039590 0.000000 
				CHANNELS 3 Zrotation Yrotation Xrotation
				JOINT LeftToeBase
				{
					OFFSET 0.157640 -0.433110 2.322550 
					CHANNELS 3 Zrotation Yrotation Xrotation
					End Site
					{
						OFFSET 0.000000 0.000000 0.000000 
					}
				}
			}
		}
	}
	JOINT RigthUpLeg
	{
		OFFSET 0.000000 0.000000 0.000000 
		CHANNELS 3 Zrotation Yrotation Xrotation
		JOINT RightLeg
		{
			OFFSET -3.848050 -8.780180 0.839290 
			CHANNELS 3 Zrotation Yrotation Xrotation
			JOINT RightFoot
			{
				OFFSET -2.568260 -7.056230 0.000000 
				CHANNELS 3 Zrotation Yrotation Xrotation
				JOINT RightToeBase
				{
					OFFSET -0.164730 -0.452590 2.363150 
					CHANNELS 3 Zrotation Yrotation Xrotation
					End Site
					{
						OFFSET 0.000000 0.000000 0.000000 
					}
				}
			}
		}
	}
	JOINT Spine
	{
		OFFSET 0.028270 2.035590 -0.193380 
		CHANNELS 3 Zrotation Yrotation Xrotation
		JOINT Spine1
		{
			OFFSET 0.056720 2.048850 -0.042750 
			CHANNELS 3 Zrotation Yrotation Xrotation
			JOINT Neck1
			{
				OFFSET -0.054170 1.746240 0.172020 
				CHANNELS 3 Zrotation Yrotation Xrotation
				JOINT Head
				{
					OFFSET 0.104070 1.761360 -0.123970 
					CHANNELS 3 Zrotation Yrotation Xrotation
					End Site
					{
						OFFSET 0.000000 0.000000 0.000000 
					}
				}
			}
			JOINT LeftArm
			{
				OFFSET 3.362410 1.200890 -0.311210 
				CHANNELS 3 Zrotation Yrotation Xrotation
				JOINT LeftForeArm
				{
					OFFSET 4.983000 -0.000000 -0.000000 
					CHANNELS 3 Zrotation Yrotation Xrotation
					JOINT LeftHand
					{
						OFFSET 3.483560 -0.000000 -0.000000 
						CHANNELS 3 Zrotation Yrotation Xrotation
						JOINT LeftHandIndex1
						{
							OFFSET 0.715260 -0.000000 -0.000000 
							CHANNELS 3 Zrotation Yrotation Xrotation
							End Site
							{
								OFFSET 0.000000 0.000000 0.000000 
							}
						}
					}
				}
			}
			JOINT RightArm
			{
				OFFSET -3.136600 1.374050 -0.404650 
				CHANNELS 3 Zrotation Yrotation Xrotation
				JOINT RightForeArm
				{
					OFFSET -5.241900 -0.000000 -0.000000 
					CHANNELS 3 Zrotation Yrotation Xrotation
					JOINT RightHand
					{
						OFFSET -3.444170 -0.000000 -0.000000 
						CHANNELS 3 Zrotation Yrotation Xrotation
						JOINT RightHandIndex1
						{
							OFFSET -0.622530 -0.000000 -0.000000 
							CHANNELS 3 Zrotation Yrotation Xrotation
							End Site
							{
								OFFSET 0.000000 0.000000 0.000000 
							}
						}
					}
				}
			}
		}
	}
}
MOTION
Frames: 10
Frame Time: 0.008333
-2.459858 14.507683 5.742495 170.276443 -42.221558 178.379807 -13.181032 -28.183681 -62.225643 -29.947140 7.091372 34.330181 -42.031097 34.275040 -37.794689 13.921258 1.588491 11.726269 -47.567631 -9.830070 -4.370172 76.099373 -3.918727 -27.892441 -4.456613 -7.379499 -61.823906 6.416754 -3.892011 28.433132 -19.245327 -9.532671 20.379709 -29.251314 -11.086515 35.994999 -39.375790 1.468487 -28.265482 -12.771325 18.545637 29.159946 -65.735283 -21.305710 24.454617 35.287277 -37.530495 -17.095490 32.549183 19.891577 -43.985619 -33.297787 -44.118183 29.065750 130.197433 24.154915 69.389343 17.753792 56.039089 151.582474 -29.038994 -13.539327 -17.555738 -18.990467 20.679295 -37.426846 
-2.541255 14.517689 5.701934 170.337723 -39.876362 178.507690 -5.179157 -24.850098 -18.454603 -22.430599 1.233742 -12.654556 -3.589429 32.286213 1.445325 44.320717 -16.794073 -37.708046 28.038536 13.287769 -24.357012 60.331444 18.142639 -41.002792 8.212963 -7.292656 -70.867111 -43.102661 -20.618568 43.061611 -2.936252 -21.488113 -37.665768 8.820206 -20.130211 15.318744 31.715746 -27.167364 -11.471005 9.995155 19.702175 32.300240 -69.313522 -26.048744 -34.363689 -10.461822 -85.159737 -1.006665 -19.719749 -3.476998 0.115050 -40.520382 -44.634674 -3.853241 84.882248 54.694981 86.513107 87.426468 65.193649 -177.187607 -42.508877 -11.156633 24.804646 44.385281 -9.147800 -22.309404 
-2.618448 14.527208 5.658350 170.375656 -37.557163 178.634201 -72.430305 -59.919685 -14.603748 27.640499 32.346375 11.087611 -38.573090 44.377914 -37.269573 42.213665 18.767948 -7.467261 -6.641358 -15.770624 34.641823 104.682137 -30.029182 -28.174774 -5.394087 13.647954 -91.648430 9.667057 23.191166 -25.280682 -4.696887 42.701794 38.107452 -21.218979 -25.780579 19.861063 -39.299812 -1.532601 33.218338 -27.521275 37.954193 -18.077211 -52.695904 -26.112059 38.098888 5.194706 -68.621559 -3.854246 -28.960032 40.521618 26.720123 -3.978655 -2.858201 -43.851974 123.946243 13.324100 23.324383 16.599907 101.129066 -176.949051 32.699467 -23.524740 -3.074303 4.538487 33.148613 -24.991001 
-2.691251 14.536220 5.611611 170.386566 -35.262676 178.753448 -39.308647 -20.758286 -5.148631 15.246297 3.899864 47.873241 25.494188 -5.994521 -15.877291 41.033386 -12.020851 28.734726 -40.213955 0.602749 14.930118 45.333893 1.093420 3.128146 43.857014 25.914591 -91.177284 10.265007 -9.058254 -25.702517 44.686768 8.412509 -28.188766 -2.526304 -32.834972 36.042233 26.712742 13.416920 5.609088 4.262088 38.499607 21.918283 -86.283440 24.790855 -10.528393 19.985266 -37.484116 -9.591039 39.316162 18.442289 2.713582 -6.348709 -41.165577 38.258602 116.197662 54.969017 55.995281 85.644127 95.870689 -170.079605 21.889336 -17.373693 14.299275 -31.203959 40.955727 -2.444477 
-2.764054 14.545231 5.564871 170.413406 -32.941769 178.892181 -32.515514 -6.397132 -82.062424 -32.278416 -8.922504 44.198215 -39.658680 -6.028776 5.061782 41.707714 -25.127245 41.740097 -6.262118 -28.408663 16.785442 65.726799 26.867998 5.817414 75.298676 18.895716 -136.913864 -33.496353 33.629906 27.867287 -28.496561 48.702763 -27.634203 -26.172878 6.964501 -28.464767 13.747550 -29.243668 -34.951168 -34.996887 43.707962 -37.140675 -23.528608 41.373825 -14.011829 -5.382013 -83.094307 -8.801788 -27.999098 28.131830 16.199144 -42.130371 16.908379 -22.054880 105.528038 51.102585 45.562477 23.116829 57.414089 147.842682 -42.772804 34.287605 -44.177738 -40.214317 -21.426943 7.314355 
-2.836857 14.554243 5.518131 170.454636 -30.603720 179.049667 -85.752609 -38.099934 -50.386719 10.174839 24.021614 13.438498 -48.873783 -40.881702 -37.785252 -44.044594 -27.423302 34.707840 -40.072296 27.395336 15.000561 52.020962 31.521559 -0.492674 1.046418 -17.928408 -71.943016 -10.004312 -38.720856 17.553099 45.463600 -34.146442 -22.063257 1.681730 -16.901564 -3.852036 -33.043861 -33.178226 37.786514 38.781017 2.196392 -31.892204 -37.072754 29.798683 19.185108 -42.606449 -47.446964 -16.895885 -13.181362 5.026001 -12.323030 16.398920 -35.982147 -25.727358 123.320183 45.299976 73.573128 72.074394 72.574844 -135.385742 -7.958133 43.625366 3.964376 3.482759 -41.680958 -8.378331 
-2.906213 14.562422 5.467940 170.488632 -28.315804 179.197021 -1.364829 33.076431 -39.841930 -46.531429 -6.457360 -1.481150 -30.297531 -35.215027 -29.659428 29.980671 41.477966 43.084869 -8.679569 -37.539940 -21.879705 94.472221 -37.549282 -60.600239 11.761618 -1.933415 -111.153183 13.965576 -11.469227 17.252262 -25.743177 12.731947 35.725025 -12.547283 -26.986668 -28.749399 -43.361263 41.396538 24.674713 -11.110200 32.554214 27.960787 -30.993031 -23.355927 27.412132 -51.288456 -94.949783 -22.905750 33.991589 -40.645103 -31.506838 35.634754 -29.501116 11.341649 125.620178 -25.731577 71.212997 36.766926 50.601189 156.176132 -16.843191 -21.823845 -22.474030 27.846285 16.530582 -28.764093 
-2.971644 14.569655 5.413820 170.512299 -26.077612 179.326004 -80.545952 -4.746000 -5.154240 8.580574 -38.196980 28.930433 14.279449 -7.719985 20.916254 -19.761223 -0.880283 -1.033804 -30.496704 -0.691308 16.684462 100.250252 -37.680149 -56.478729 43.320927 30.183067 -55.332809 -30.828789 -35.487103 34.884575 30.067503 -12.742976 0.170115 14.967199 7.414772 39.795803 44.337963 42.210457 9.659500 10.704176 25.218103 8.024873 -45.222126 29.328838 -34.494091 -35.230583 -80.577515 39.908459 36.980068 7.043135 -13.561226 -12.290645 33.497772 -7.359906 113.933167 33.939877 50.276123 69.166084 82.064568 -136.482956 7.947030 7.803321 42.328938 38.001274 -38.706093 21.402550 
-3.037075 14.576888 5.359700 170.548111 -23.823706 179.467407 5.293877 -2.154867 -31.732851 -24.172968 -5.581402 11.162465 -47.522568 28.809187 0.812150 5.494608 14.315698 26.970432 15.910337 -47.607632 11.254556 102.255257 -18.577190 -8.581907 36.173733 38.091656 -86.699280 -38.406414 -5.685936 -31.514294 4.832521 -0.380179 39.329002 -9.802773 37.599789 0.540037 -9.700802 11.409587 -33.538502 -17.015802 -25.301332 -2.376370 -60.725414 -4.927756 -41.427238 -5.990934 -78.997581 -26.056133 -3.341727 2.708264 24.356215 5.983559 -18.606941 23.639215 76.692101 42.612541 62.086517 35.916225 71.238045 -149.574753 30.256077 36.103481 -33.135620 -35.287334 6.118999 -24.667912 
-3.102506 14.584121 5.305580 170.595444 -21.561075 179.621628 -60.229584 6.482507 -19.698484 23.609367 -31.980320 4.227287 -11.652202 -46.996281 -38.802288 -11.900449 3.117930 -40.622711 -25.065437 -24.151941 -8.112590 34.510521 -41.201572 -16.820587 51.803131 27.156279 -102.476227 -15.997568 -19.888735 31.893118 33.940536 24.160774 8.067380 -17.818365 -29.854284 -13.978139 38.468956 -24.996466 1.040573 -3.989542 4.732726 -17.593559 -52.830357 -37.945545 37.795876 5.961580 -57.849869 -27.170139 -0.845444 8.899144 16.652620 -43.140335 -29.398899 40.862049 103.237312 27.415705 45.656509 59.298496 122.370010 153.911774 -13.422069 35.754028 -12.095403 14.281932 -27.536810 -17.394720 
